<?xml version="1.0" standalone="no"?>
<!DOCTYPE svg PUBLIC "-//W3C//DTD SVG 20010904//EN"
 "http://www.w3.org/TR/2001/REC-SVG-20010904/DTD/svg10.dtd">
<svg version="1.0" xmlns="http://www.w3.org/2000/svg"
 width="512.000000pt" height="512.000000pt" viewBox="0 0 512.000000 512.000000"
 preserveAspectRatio="xMidYMid meet">

<g transform="translate(0.000000,512.000000) scale(0.100000,-0.100000)"
fill="#000000" stroke="none">
<path d="M1196 4784 c-33 -10 -65 -32 -101 -67 -73 -74 -85 -115 -85 -298 l0
-147 -152 -3 c-152 -4 -154 -4 -228 -40 -122 -59 -202 -155 -236 -284 -20 -75
-20 -3226 0 -3301 29 -111 118 -224 214 -273 105 -53 14 -51 1949 -51 1273 0
1807 3 1845 11 157 33 293 170 327 327 8 38 11 504 11 1645 0 1317 -3 1601
-14 1643 -41 154 -168 279 -317 313 -24 6 -99 11 -166 11 l-123 0 0 158 c0
132 -3 164 -19 198 -48 105 -146 169 -261 168 -79 -1 -124 -19 -184 -74 -78
-72 -90 -110 -94 -292 l-4 -158 -353 0 -353 0 -3 158 c-4 148 -6 160 -32 214
-104 211 -403 207 -503 -7 -22 -46 -24 -63 -24 -207 l0 -158 -359 0 -359 0 -4
163 c-3 152 -5 165 -30 212 -14 28 -39 62 -55 76 -73 68 -190 94 -287 63z
m145 -159 c58 -31 69 -64 69 -217 l0 -138 -120 0 -120 0 0 138 c0 152 6 174
59 209 40 27 71 29 112 8z m1296 -10 c42 -28 53 -72 53 -215 l0 -130 -120 0
-120 0 0 140 c0 159 8 186 62 214 38 19 87 15 125 -9z m1259 9 c56 -27 64 -54
64 -214 l0 -140 -120 0 -120 0 0 133 c0 153 12 191 70 219 43 22 63 22 106 2z
m-2884 -631 c3 -96 8 -126 25 -158 28 -54 88 -109 143 -134 78 -36 217 -24
240 19 16 31 11 79 -10 100 -22 22 -30 23 -107 20 -101 -4 -133 39 -133 178
l0 92 560 0 560 0 0 -103 c0 -121 15 -176 66 -235 52 -61 122 -92 209 -92 109
0 159 41 141 116 -9 35 -43 48 -119 45 -66 -2 -69 -1 -103 33 l-34 34 0 101 0
101 554 0 553 0 5 -107 c7 -160 52 -243 160 -297 93 -46 236 -30 258 29 15 39
13 51 -14 82 -22 25 -28 27 -90 25 -72 -3 -111 12 -136 52 -9 12 -16 60 -18
119 l-4 97 319 0 c370 0 387 -3 463 -80 73 -72 80 -104 80 -364 l0 -221 -2020
3 -2020 2 0 218 c0 258 7 290 80 363 64 64 108 77 261 78 l127 1 4 -117z
m3566 -2005 c-3 -1283 -3 -1314 -23 -1353 -25 -50 -80 -105 -130 -130 -39 -20
-70 -20 -1865 -20 -1795 0 -1826 0 -1865 20 -50 25 -105 80 -130 130 -20 39
-20 70 -23 1347 l-2 1308 2012 3 c1107 1 2016 3 2021 5 4 1 6 -589 5 -1310z"/>
<path d="M1035 2895 l-25 -24 0 -263 c1 -276 2 -282 47 -306 28 -15 540 -17
578 -2 50 19 57 57 53 327 l-3 245 -28 24 -28 24 -285 0 -285 0 -24 -25z m490
-290 l0 -150 -177 -3 -178 -2 0 155 0 155 178 -2 177 -3 0 -150z"/>
<path d="M2173 2896 l-28 -24 0 -266 c0 -263 0 -266 23 -288 22 -23 24 -23
313 -23 l291 0 24 28 24 28 0 260 0 260 -25 24 -24 25 -285 0 -285 0 -28 -24z
m487 -291 l0 -155 -177 2 -178 3 -3 153 -3 152 181 0 180 0 0 -155z"/>
<path d="M3305 2895 l-25 -24 0 -264 c0 -251 1 -264 20 -285 11 -12 31 -24 43
-27 12 -3 145 -5 294 -3 268 3 273 3 295 26 23 22 23 25 23 288 l0 266 -28 24
-28 24 -285 0 -285 0 -24 -25z m493 -287 l-3 -153 -177 -3 -178 -2 0 155 0
155 180 0 181 0 -3 -152z"/>
<path d="M1031 1754 c-20 -25 -21 -39 -21 -286 l0 -259 25 -24 24 -25 289 0
289 0 24 26 c24 25 24 28 27 247 4 248 -1 300 -29 328 -18 18 -36 19 -313 19
l-295 0 -20 -26z m499 -284 l0 -150 -180 0 -180 0 0 150 0 150 180 0 180 0 0
-150z"/>
<path d="M2177 1768 c-9 -7 -21 -26 -27 -41 -13 -37 -13 -477 0 -513 21 -53
23 -53 333 -54 l288 0 24 25 25 24 0 259 c0 247 -1 261 -21 286 l-20 26 -293
0 c-218 0 -296 -3 -309 -12z m483 -298 l0 -150 -180 0 -180 0 0 150 0 150 180
0 180 0 0 -150z"/>
<path d="M3301 1754 c-20 -25 -21 -39 -21 -286 l0 -259 25 -24 24 -25 289 0
289 0 24 26 c24 25 24 28 27 257 3 254 0 289 -29 318 -18 18 -35 19 -313 19
l-295 0 -20 -26z m499 -284 l0 -150 -180 0 -180 0 0 150 0 150 180 0 180 0 0
-150z"/>
</g>
</svg>
