<?xml version="1.0" standalone="no"?>
<!DOCTYPE svg PUBLIC "-//W3C//DTD SVG 20010904//EN"
 "http://www.w3.org/TR/2001/REC-SVG-20010904/DTD/svg10.dtd">
<svg version="1.0" xmlns="http://www.w3.org/2000/svg"
 width="512.000000pt" height="512.000000pt" viewBox="0 0 512.000000 512.000000"
 preserveAspectRatio="xMidYMid meet">

<g transform="translate(0.000000,512.000000) scale(0.100000,-0.100000)"
fill="#000000" stroke="none">
<path d="M2492 4639 c-51 -26 -57 -35 -103 -169 l-36 -105 -124 -5 c-139 -6
-178 -20 -212 -78 -24 -41 -24 -112 0 -152 10 -17 56 -59 103 -92 47 -34 89
-64 93 -68 5 -5 -8 -61 -28 -125 -41 -132 -41 -165 2 -215 34 -41 73 -60 122
-60 39 0 54 9 237 135 9 7 19 7 28 0 183 -126 198 -135 237 -135 49 0 88 19
122 60 43 50 43 83 2 215 -20 64 -33 120 -28 125 4 4 46 34 93 68 47 33 93 74
103 90 23 41 22 118 -3 159 -33 54 -70 67 -209 73 l-124 5 -36 105 c-46 134
-52 144 -104 169 -55 26 -81 26 -135 0z m102 -266 c51 -155 65 -166 230 -173
l120 -5 -87 -63 c-48 -35 -94 -77 -103 -94 -23 -44 -19 -102 15 -200 16 -49
27 -88 25 -88 -3 0 -44 28 -92 63 -81 59 -89 62 -142 62 -53 0 -61 -3 -142
-62 -48 -35 -89 -63 -92 -63 -2 0 9 39 25 88 34 98 38 156 15 200 -9 17 -55
59 -103 94 l-87 63 120 5 c165 7 179 18 230 173 15 48 31 87 34 87 3 0 19 -39
34 -87z"/>
<path d="M672 4150 c-43 -27 -72 -76 -72 -125 0 -22 9 -78 20 -125 11 -47 20
-92 20 -100 0 -9 -41 -38 -95 -68 -52 -30 -106 -67 -120 -83 -45 -55 -45 -134
2 -189 37 -44 52 -50 179 -64 63 -8 118 -16 121 -19 3 -4 16 -54 28 -113 13
-59 32 -119 42 -133 51 -67 123 -87 192 -52 48 25 64 48 117 172 36 84 40 90
64 85 54 -10 200 -18 232 -12 74 14 126 101 108 181 -7 33 -25 56 -99 125 -50
47 -91 89 -91 93 0 4 20 55 45 111 25 57 45 118 45 136 0 47 -36 104 -82 130
-59 33 -106 24 -221 -44 -53 -31 -98 -56 -101 -56 -3 0 -38 30 -78 66 -40 37
-86 75 -103 85 -40 25 -111 25 -153 -1z m265 -299 c12 -6 43 -11 70 -11 39 0
64 9 133 50 46 27 86 47 89 45 2 -2 -15 -47 -38 -98 -62 -143 -57 -166 62
-280 81 -78 82 -79 47 -73 -19 3 -71 8 -115 11 -127 9 -156 -15 -235 -195
l-24 -55 -19 85 c-36 166 -62 196 -180 212 -40 5 -90 12 -112 16 l-40 7 90 51
c137 78 154 113 124 259 -10 50 -19 96 -19 103 0 8 33 -15 73 -51 39 -35 82
-69 94 -76z"/>
<path d="M4295 4151 c-16 -10 -63 -48 -103 -85 -40 -36 -75 -66 -78 -66 -3 0
-48 25 -101 56 -115 68 -162 77 -221 44 -46 -26 -82 -83 -82 -130 0 -18 20
-79 45 -136 25 -56 45 -107 45 -112 0 -4 -40 -45 -90 -91 -101 -92 -119 -129
-100 -200 13 -49 63 -99 108 -107 32 -6 178 2 232 12 24 5 28 -1 64 -85 53
-124 69 -147 117 -172 69 -35 141 -15 192 52 10 14 29 74 42 133 12 59 25 109
28 112 3 3 57 12 120 19 127 15 143 20 181 65 46 55 46 135 0 189 -13 16 -67
53 -119 83 -54 30 -95 59 -95 68 0 8 9 53 20 100 25 109 25 157 0 198 -42 68
-140 94 -205 53z m36 -273 c-32 -146 -14 -184 124 -262 l90 -51 -40 -7 c-22
-4 -72 -11 -112 -16 -118 -16 -144 -46 -180 -212 l-19 -85 -24 55 c-52 118
-75 155 -116 178 -35 20 -47 22 -119 17 -44 -3 -96 -8 -115 -11 -34 -6 -34 -5
47 73 119 114 124 137 62 280 -23 51 -40 96 -38 98 3 2 43 -18 89 -45 71 -41
93 -50 135 -50 58 0 83 14 170 93 33 30 61 50 63 43 1 -6 -6 -50 -17 -98z"/>
<path d="M2372 3370 c-1254 -98 -2240 -1116 -2298 -2372 -6 -127 -5 -134 15
-160 l22 -28 485 0 485 0 23 23 c20 20 24 36 29 137 30 508 324 957 779 1189
212 109 405 155 648 155 243 0 435 -46 648 -154 453 -231 749 -682 779 -1190
5 -101 9 -117 29 -137 l23 -23 485 0 485 0 22 28 c20 26 21 33 15 161 -45 980
-662 1843 -1576 2204 -340 135 -736 195 -1098 167z m106 -527 l-3 -368 -40 -3
c-151 -9 -348 -58 -502 -124 -53 -23 -98 -37 -103 -32 -10 11 -347 595 -355
616 -4 11 22 28 102 65 258 121 602 208 836 212 l67 1 -2 -367z m477 338 c141
-24 246 -52 376 -97 107 -37 319 -132 319 -143 0 -3 -81 -145 -179 -316 -138
-239 -183 -310 -198 -308 -10 1 -68 22 -130 48 -124 51 -284 91 -413 102 l-85
8 -3 369 -2 369 102 -6 c57 -4 153 -15 213 -26z m-1446 -634 c95 -164 174
-304 177 -311 3 -7 -28 -37 -72 -70 -136 -103 -282 -254 -365 -378 l-25 -37
-317 182 c-174 100 -316 186 -317 191 0 11 101 156 154 221 112 136 263 284
386 380 99 76 193 136 200 128 4 -4 85 -142 179 -306z m2364 263 c167 -115
364 -295 481 -439 72 -88 176 -234 176 -246 0 -5 -143 -92 -317 -192 l-317
-182 -25 37 c-83 124 -231 278 -363 376 -43 32 -78 61 -78 64 0 9 362 632 367
632 3 0 37 -22 76 -50z m-3033 -1023 c162 -93 296 -171 298 -172 2 -2 -11 -36
-29 -77 -70 -160 -106 -291 -130 -475 l-12 -93 -369 0 -369 0 6 68 c29 325
100 593 224 855 40 82 43 87 64 76 12 -7 155 -88 317 -182z m3838 68 c115
-252 179 -508 207 -817 l6 -68 -370 0 -369 0 -6 57 c-23 192 -64 350 -133 506
-19 43 -33 80 -31 81 2 2 111 65 243 141 132 76 273 158 314 181 87 51 76 57
139 -81z"/>
<path d="M3254 1691 c-21 -16 -133 -123 -248 -239 l-209 -210 -66 32 c-61 29
-74 31 -171 31 -97 0 -110 -2 -172 -32 -113 -53 -196 -146 -233 -262 -28 -86
-18 -217 22 -304 60 -127 172 -212 316 -238 180 -33 370 67 450 238 43 93 50
219 18 314 -12 35 -28 73 -36 84 -14 18 -1 33 225 260 206 207 240 245 240
270 -1 34 -15 56 -47 73 -32 18 -46 15 -89 -17z m-577 -569 c52 -27 120 -104
133 -151 58 -208 -121 -396 -322 -337 -140 40 -219 190 -178 337 19 66 101
144 180 170 42 14 142 3 187 -19z"/>
</g>
</svg>
